PathFileType	4	(X/Y/Z)	OpenSim_Sub11_EMGPreOp_Gyro.trc
DataRate	CameraRate	NumFrames	NumMarkers	Units	OrigDataRate	OrigDataStartFrame	OrigNumFrames
100	100	13	8	m	100	1	5885
Frame#	Time	torso_imu_offset_imu	pelvis_imu_offset_imu	tibia_r_imu_offset_imu	femur_r_imu_offset_imu	tibia_l_imu_offset_imu	femur_l_imu_offset_imu	toes_r_imu_offset_imu	toes_l_imu_offset_imu
				X1	Y1	Z1	X2	Y2	Z2	X3	Y3	Z3	X4	Y4	Z4	X5	Y5	Z5	X6	Y6	Z6	X7	Y7	Z7	X8		Y8	Z8	

1	0	-0.01735047	-0.02708828	-0.00205223	-0.00586306	-0.00388235	-0.00651939	0.00370262	0.00641035	0.00266030	-0.00370119	-0.00515396	0.00177588	0.00348507	-0.00147255	-0.01159952	-0.00079310	-0.00322924	-0.01091443	0.00002660	-0.00348162	0.00252016	0.00632980	-0.00712517	0.00107736
2	0.01000000	-0.00999723	-0.03827689	-0.00471347	-0.01046759	-0.00628035	-0.00378481	0.00077765	0.01084424	0.00523833	-0.00972460	-0.00275572	0.00454364	0.00523445	0.00036303	-0.00914499	-0.00258902	-0.00020247	-0.01066374	-0.00460568	-0.00658703	0.00380973	0.00378751	-0.00222533	-0.00000631
3	0.02000000	-0.01389545	-0.04101182	-0.00468841	-0.00854286	-0.00514214	-0.00697114	-0.00386114	0.00984568	0.00373191	-0.01090174	-0.00539409	0.00142950	0.00781336	0.00093566	-0.00775460	-0.00126484	-0.00067069	-0.00848802	-0.00003504	-0.00542626	0.00591443	0.00277808	-0.00684911	-0.00047962
4	0.03000000	-0.02968218	-0.04603472	0.00315044	-0.00609901	-0.00488441	-0.00414973	-0.00590897	0.00491823	0.00498189	-0.01855163	-0.00252255	0.00159788	0.00878345	-0.00092517	-0.01079877	0.00065352	-0.00020949	-0.00904303	0.00133670	-0.00560945	0.00341407	0.00641264	-0.00263156	-0.00348563
5	0.04000000	-0.04311795	-0.04112208	0.00183660	-0.00647578	-0.00896624	-0.00622305	-0.00433787	0.00551983	0.00405511	-0.01928856	-0.00187522	-0.00031383	0.01041942	-0.00109806	-0.01071697	-0.00010695	-0.00061877	-0.00922356	-0.00104288	-0.00534574	0.00335966	0.00369806	-0.00543582	-0.00216589
6	0.05000000	-0.03885367	-0.04604942	0.00344385	-0.00615759	-0.00758155	-0.00590698	-0.00426536	0.00544548	0.00532914	-0.01940888	-0.00015284	0.00209957	0.00816493	-0.00280848	-0.01110686	0.00392741	0.00247149	-0.01205902	-0.00070071	-0.00511468	0.00289031	0.00829698	-0.00424871	-0.00188539
7	0.06000000	-0.03030620	-0.04881877	0.00678151	-0.00239842	-0.00665666	-0.00589200	-0.00250573	0.00499276	0.00313367	-0.01526918	0.00082473	0.00088994	0.00843591	-0.00104286	-0.00893532	0.00212463	0.00075555	-0.00984768	-0.00054466	-0.00624543	0.00468892	0.00531884	-0.00578450	-0.00049652
8	0.07000000	-0.02265906	-0.04318964	0.00926643	-0.00358263	-0.00993453	-0.00368046	-0.00034789	0.00548584	0.00339213	-0.00864157	-0.00213165	-0.00171786	0.01009570	-0.00067902	-0.01061804	0.00190163	0.00170029	-0.00959741	-0.00047681	-0.00583302	0.00570408	0.00577898	-0.00581194	-0.00069842
9	0.08000000	-0.01953981	-0.03597838	0.00476956	-0.00864826	-0.01183602	-0.00310410	0.00536712	0.00557827	0.00277437	-0.00544807	-0.00593296	0.00147933	0.00789440	-0.00056341	-0.01039440	0.00291912	0.00405921	-0.01256581	-0.00051072	-0.00292729	0.00305359	0.00601234	-0.00318176	-0.00057967
10	0.09000000	-0.01959447	-0.02330988	0.00266435	-0.00349833	-0.01028862	-0.00361192	0.01054340	0.00388505	-0.00034641	0.00028318	-0.00301915	0.00384308	0.00940614	0.00009328	-0.00961501	-0.00334109	-0.00007092	-0.01385633	0.00116481	-0.00557163	0.00622932	0.00416144	-0.00507175	0.00007074
11	0.10000000	-0.01294889	-0.01769919	0.00248958	-0.00803413	-0.00939795	-0.00020785	0.01108065	0.00570525	0.00364423	0.00497380	-0.00477329	0.00304546	0.00717601	0.00131048	-0.01051786	-0.00432043	-0.00116277	-0.01188131	-0.00025463	-0.00500658	0.00327265	0.00180529	-0.00275211	-0.00021714
12	0.11000000	-0.01092303	-0.01124603	0.00043575	-0.00620476	-0.00730594	-0.00197836	0.01085316	0.00538402	0.00200984	0.01497505	-0.00649014	0.00228988	0.00241289	0.00309549	-0.01220663	-0.00297441	-0.00400576	-0.01452505	-0.00175403	-0.00656195	0.00498541	0.00487819	-0.00086228	-0.00384407
13	0.12000000	-0.00544294	-0.01164153	-0.00199475	-0.00647643	-0.00518494	-0.00163383	0.00857980	0.00549232	0.00363562	0.01555131	-0.00643152	0.00550984	0.00329720	0.00127149	-0.01169402	-0.00428898	-0.00034848	-0.01537537	-0.00032161	-0.00214242	0.00127741	0.00256903	-0.00176090	-0.00077452
